<mxfile host="app.diagrams.net" modified="2024-03-13T14:55:29.930Z" agent="Mozilla/5.0 (Windows NT 10.0; Win64; x64) AppleWebKit/537.36 (KHTML, like Gecko) Chrome/122.0.0.0 Safari/537.36" etag="iKhu5vgG-wsZfjRarZ9S" version="24.0.5" type="device">
  <diagram name="Страница — 1" id="jor8QDz_xb9i7FEpWLWG">
    <mxGraphModel dx="2571" dy="924" grid="1" gridSize="10" guides="1" tooltips="1" connect="1" arrows="1" fold="1" page="1" pageScale="1" pageWidth="827" pageHeight="1169" math="0" shadow="0">
      <root>
        <mxCell id="0" />
        <mxCell id="1" parent="0" />
        <mxCell id="zePrVZ3Qa63pMSRUAGxY-57" style="edgeStyle=orthogonalEdgeStyle;rounded=0;orthogonalLoop=1;jettySize=auto;html=1;exitX=0;exitY=0.5;exitDx=0;exitDy=0;entryX=0.5;entryY=0;entryDx=0;entryDy=0;" edge="1" parent="1" source="zePrVZ3Qa63pMSRUAGxY-1" target="zePrVZ3Qa63pMSRUAGxY-3">
          <mxGeometry relative="1" as="geometry" />
        </mxCell>
        <mxCell id="zePrVZ3Qa63pMSRUAGxY-64" style="edgeStyle=orthogonalEdgeStyle;rounded=0;orthogonalLoop=1;jettySize=auto;html=1;exitX=0.5;exitY=1;exitDx=0;exitDy=0;entryX=1;entryY=0.25;entryDx=0;entryDy=0;" edge="1" parent="1" source="zePrVZ3Qa63pMSRUAGxY-1" target="zePrVZ3Qa63pMSRUAGxY-5">
          <mxGeometry relative="1" as="geometry" />
        </mxCell>
        <mxCell id="zePrVZ3Qa63pMSRUAGxY-72" style="edgeStyle=orthogonalEdgeStyle;rounded=0;orthogonalLoop=1;jettySize=auto;html=1;exitX=1;exitY=0.5;exitDx=0;exitDy=0;" edge="1" parent="1" source="zePrVZ3Qa63pMSRUAGxY-1" target="zePrVZ3Qa63pMSRUAGxY-8">
          <mxGeometry relative="1" as="geometry" />
        </mxCell>
        <mxCell id="zePrVZ3Qa63pMSRUAGxY-73" style="edgeStyle=orthogonalEdgeStyle;rounded=0;orthogonalLoop=1;jettySize=auto;html=1;exitX=1;exitY=0.5;exitDx=0;exitDy=0;" edge="1" parent="1" source="zePrVZ3Qa63pMSRUAGxY-1" target="zePrVZ3Qa63pMSRUAGxY-7">
          <mxGeometry relative="1" as="geometry">
            <Array as="points">
              <mxPoint x="470" y="25" />
              <mxPoint x="470" y="460" />
              <mxPoint x="790" y="460" />
            </Array>
          </mxGeometry>
        </mxCell>
        <mxCell id="zePrVZ3Qa63pMSRUAGxY-74" style="edgeStyle=orthogonalEdgeStyle;rounded=0;orthogonalLoop=1;jettySize=auto;html=1;exitX=1;exitY=0.5;exitDx=0;exitDy=0;" edge="1" parent="1" source="zePrVZ3Qa63pMSRUAGxY-1" target="zePrVZ3Qa63pMSRUAGxY-6">
          <mxGeometry relative="1" as="geometry">
            <Array as="points">
              <mxPoint x="470" y="25" />
              <mxPoint x="470" y="460" />
              <mxPoint x="130" y="460" />
            </Array>
          </mxGeometry>
        </mxCell>
        <mxCell id="zePrVZ3Qa63pMSRUAGxY-1" value="" style="ellipse;fillColor=strokeColor;html=1;" vertex="1" parent="1">
          <mxGeometry x="399" y="10" width="30" height="30" as="geometry" />
        </mxCell>
        <mxCell id="zePrVZ3Qa63pMSRUAGxY-66" style="edgeStyle=orthogonalEdgeStyle;rounded=0;orthogonalLoop=1;jettySize=auto;html=1;exitX=0.5;exitY=1;exitDx=0;exitDy=0;" edge="1" parent="1" source="zePrVZ3Qa63pMSRUAGxY-3" target="zePrVZ3Qa63pMSRUAGxY-5">
          <mxGeometry relative="1" as="geometry">
            <Array as="points">
              <mxPoint x="280" y="220" />
              <mxPoint x="280" y="220" />
            </Array>
          </mxGeometry>
        </mxCell>
        <mxCell id="zePrVZ3Qa63pMSRUAGxY-3" value="Ознакомительная страница" style="rounded=1;whiteSpace=wrap;html=1;" vertex="1" parent="1">
          <mxGeometry x="220" y="80" width="120" height="60" as="geometry" />
        </mxCell>
        <mxCell id="zePrVZ3Qa63pMSRUAGxY-65" style="edgeStyle=orthogonalEdgeStyle;rounded=0;orthogonalLoop=1;jettySize=auto;html=1;exitX=0;exitY=0.5;exitDx=0;exitDy=0;" edge="1" parent="1" source="zePrVZ3Qa63pMSRUAGxY-5" target="zePrVZ3Qa63pMSRUAGxY-13">
          <mxGeometry relative="1" as="geometry" />
        </mxCell>
        <mxCell id="zePrVZ3Qa63pMSRUAGxY-78" style="edgeStyle=orthogonalEdgeStyle;rounded=0;orthogonalLoop=1;jettySize=auto;html=1;exitX=0.75;exitY=1;exitDx=0;exitDy=0;endArrow=none;endFill=0;" edge="1" parent="1" source="zePrVZ3Qa63pMSRUAGxY-5">
          <mxGeometry relative="1" as="geometry">
            <mxPoint x="310" y="460" as="targetPoint" />
          </mxGeometry>
        </mxCell>
        <mxCell id="zePrVZ3Qa63pMSRUAGxY-88" style="edgeStyle=orthogonalEdgeStyle;rounded=0;orthogonalLoop=1;jettySize=auto;html=1;exitX=0;exitY=0.25;exitDx=0;exitDy=0;entryX=0.5;entryY=1;entryDx=0;entryDy=0;" edge="1" parent="1" source="zePrVZ3Qa63pMSRUAGxY-5" target="zePrVZ3Qa63pMSRUAGxY-87">
          <mxGeometry relative="1" as="geometry" />
        </mxCell>
        <mxCell id="zePrVZ3Qa63pMSRUAGxY-5" value="Страница авторизации" style="rounded=1;whiteSpace=wrap;html=1;" vertex="1" parent="1">
          <mxGeometry x="220" y="260" width="120" height="60" as="geometry" />
        </mxCell>
        <mxCell id="zePrVZ3Qa63pMSRUAGxY-104" style="edgeStyle=orthogonalEdgeStyle;rounded=0;orthogonalLoop=1;jettySize=auto;html=1;exitX=1;exitY=0.75;exitDx=0;exitDy=0;fillColor=#d5e8d4;strokeColor=#82b366;" edge="1" parent="1" source="zePrVZ3Qa63pMSRUAGxY-6" target="zePrVZ3Qa63pMSRUAGxY-91">
          <mxGeometry relative="1" as="geometry">
            <Array as="points">
              <mxPoint x="240" y="570" />
              <mxPoint x="240" y="610" />
            </Array>
          </mxGeometry>
        </mxCell>
        <mxCell id="zePrVZ3Qa63pMSRUAGxY-107" style="edgeStyle=orthogonalEdgeStyle;rounded=0;orthogonalLoop=1;jettySize=auto;html=1;exitX=0.5;exitY=1;exitDx=0;exitDy=0;entryX=0.5;entryY=0;entryDx=0;entryDy=0;fillColor=#ffe6cc;strokeColor=#d79b00;" edge="1" parent="1" source="zePrVZ3Qa63pMSRUAGxY-6" target="zePrVZ3Qa63pMSRUAGxY-11">
          <mxGeometry relative="1" as="geometry" />
        </mxCell>
        <mxCell id="zePrVZ3Qa63pMSRUAGxY-110" style="edgeStyle=orthogonalEdgeStyle;rounded=0;orthogonalLoop=1;jettySize=auto;html=1;exitX=0.75;exitY=1;exitDx=0;exitDy=0;fillColor=#f8cecc;strokeColor=#b85450;" edge="1" parent="1" source="zePrVZ3Qa63pMSRUAGxY-6" target="zePrVZ3Qa63pMSRUAGxY-9">
          <mxGeometry relative="1" as="geometry">
            <Array as="points">
              <mxPoint x="155" y="730" />
              <mxPoint x="390" y="730" />
            </Array>
          </mxGeometry>
        </mxCell>
        <mxCell id="zePrVZ3Qa63pMSRUAGxY-123" style="edgeStyle=orthogonalEdgeStyle;rounded=0;orthogonalLoop=1;jettySize=auto;html=1;exitX=0;exitY=0.5;exitDx=0;exitDy=0;entryX=1;entryY=0.5;entryDx=0;entryDy=0;" edge="1" parent="1" source="zePrVZ3Qa63pMSRUAGxY-6" target="zePrVZ3Qa63pMSRUAGxY-122">
          <mxGeometry relative="1" as="geometry" />
        </mxCell>
        <mxCell id="zePrVZ3Qa63pMSRUAGxY-6" value="Главная страница с сайдменю учащегося" style="rounded=1;whiteSpace=wrap;html=1;" vertex="1" parent="1">
          <mxGeometry x="50" y="525" width="140" height="60" as="geometry" />
        </mxCell>
        <mxCell id="zePrVZ3Qa63pMSRUAGxY-102" style="edgeStyle=orthogonalEdgeStyle;rounded=0;orthogonalLoop=1;jettySize=auto;html=1;exitX=1;exitY=0.75;exitDx=0;exitDy=0;entryX=0;entryY=0.5;entryDx=0;entryDy=0;fillColor=#d5e8d4;strokeColor=#82b366;" edge="1" parent="1" source="zePrVZ3Qa63pMSRUAGxY-7" target="zePrVZ3Qa63pMSRUAGxY-91">
          <mxGeometry relative="1" as="geometry">
            <Array as="points">
              <mxPoint x="890" y="570" />
              <mxPoint x="890" y="610" />
            </Array>
          </mxGeometry>
        </mxCell>
        <mxCell id="zePrVZ3Qa63pMSRUAGxY-109" style="edgeStyle=orthogonalEdgeStyle;rounded=0;orthogonalLoop=1;jettySize=auto;html=1;exitX=0.5;exitY=1;exitDx=0;exitDy=0;fillColor=#ffe6cc;strokeColor=#d79b00;" edge="1" parent="1" source="zePrVZ3Qa63pMSRUAGxY-7" target="zePrVZ3Qa63pMSRUAGxY-11">
          <mxGeometry relative="1" as="geometry" />
        </mxCell>
        <mxCell id="zePrVZ3Qa63pMSRUAGxY-112" style="edgeStyle=orthogonalEdgeStyle;rounded=0;orthogonalLoop=1;jettySize=auto;html=1;exitX=0.75;exitY=1;exitDx=0;exitDy=0;fillColor=#f8cecc;strokeColor=#b85450;" edge="1" parent="1" source="zePrVZ3Qa63pMSRUAGxY-7" target="zePrVZ3Qa63pMSRUAGxY-9">
          <mxGeometry relative="1" as="geometry">
            <Array as="points">
              <mxPoint x="815" y="730" />
              <mxPoint x="390" y="730" />
            </Array>
          </mxGeometry>
        </mxCell>
        <mxCell id="zePrVZ3Qa63pMSRUAGxY-129" style="edgeStyle=orthogonalEdgeStyle;rounded=0;orthogonalLoop=1;jettySize=auto;html=1;exitX=0;exitY=0.5;exitDx=0;exitDy=0;entryX=1;entryY=0.5;entryDx=0;entryDy=0;" edge="1" parent="1" source="zePrVZ3Qa63pMSRUAGxY-7" target="zePrVZ3Qa63pMSRUAGxY-127">
          <mxGeometry relative="1" as="geometry" />
        </mxCell>
        <mxCell id="zePrVZ3Qa63pMSRUAGxY-7" value="Главная страница с сайдменю администратора" style="rounded=1;whiteSpace=wrap;html=1;" vertex="1" parent="1">
          <mxGeometry x="710" y="525" width="140" height="60" as="geometry" />
        </mxCell>
        <mxCell id="zePrVZ3Qa63pMSRUAGxY-103" style="edgeStyle=orthogonalEdgeStyle;rounded=0;orthogonalLoop=1;jettySize=auto;html=1;exitX=1;exitY=0.75;exitDx=0;exitDy=0;fillColor=#d5e8d4;strokeColor=#82b366;" edge="1" parent="1" source="zePrVZ3Qa63pMSRUAGxY-8" target="zePrVZ3Qa63pMSRUAGxY-91">
          <mxGeometry relative="1" as="geometry">
            <Array as="points">
              <mxPoint x="600" y="570" />
              <mxPoint x="600" y="610" />
            </Array>
          </mxGeometry>
        </mxCell>
        <mxCell id="zePrVZ3Qa63pMSRUAGxY-108" style="edgeStyle=orthogonalEdgeStyle;rounded=0;orthogonalLoop=1;jettySize=auto;html=1;exitX=0.5;exitY=1;exitDx=0;exitDy=0;fillColor=#ffe6cc;strokeColor=#d79b00;" edge="1" parent="1" source="zePrVZ3Qa63pMSRUAGxY-8" target="zePrVZ3Qa63pMSRUAGxY-11">
          <mxGeometry relative="1" as="geometry" />
        </mxCell>
        <mxCell id="zePrVZ3Qa63pMSRUAGxY-111" style="edgeStyle=orthogonalEdgeStyle;rounded=0;orthogonalLoop=1;jettySize=auto;html=1;exitX=0.75;exitY=1;exitDx=0;exitDy=0;fillColor=#f8cecc;strokeColor=#b85450;" edge="1" parent="1" source="zePrVZ3Qa63pMSRUAGxY-8" target="zePrVZ3Qa63pMSRUAGxY-9">
          <mxGeometry relative="1" as="geometry">
            <Array as="points">
              <mxPoint x="504" y="730" />
              <mxPoint x="390" y="730" />
            </Array>
          </mxGeometry>
        </mxCell>
        <mxCell id="zePrVZ3Qa63pMSRUAGxY-126" style="edgeStyle=orthogonalEdgeStyle;rounded=0;orthogonalLoop=1;jettySize=auto;html=1;exitX=0;exitY=0.5;exitDx=0;exitDy=0;entryX=1;entryY=0.5;entryDx=0;entryDy=0;" edge="1" parent="1" source="zePrVZ3Qa63pMSRUAGxY-8" target="zePrVZ3Qa63pMSRUAGxY-124">
          <mxGeometry relative="1" as="geometry" />
        </mxCell>
        <mxCell id="zePrVZ3Qa63pMSRUAGxY-8" value="Главная страница с сайдменю&amp;nbsp; преподователя" style="rounded=1;whiteSpace=wrap;html=1;" vertex="1" parent="1">
          <mxGeometry x="399" y="525" width="140" height="60" as="geometry" />
        </mxCell>
        <mxCell id="zePrVZ3Qa63pMSRUAGxY-118" style="edgeStyle=orthogonalEdgeStyle;rounded=0;orthogonalLoop=1;jettySize=auto;html=1;exitX=0.25;exitY=1;exitDx=0;exitDy=0;fillColor=#e1d5e7;strokeColor=#9673a6;" edge="1" parent="1" source="zePrVZ3Qa63pMSRUAGxY-9" target="zePrVZ3Qa63pMSRUAGxY-116">
          <mxGeometry relative="1" as="geometry">
            <Array as="points">
              <mxPoint x="360" y="960" />
              <mxPoint x="280" y="960" />
            </Array>
          </mxGeometry>
        </mxCell>
        <mxCell id="zePrVZ3Qa63pMSRUAGxY-119" style="edgeStyle=orthogonalEdgeStyle;rounded=0;orthogonalLoop=1;jettySize=auto;html=1;exitX=0.75;exitY=1;exitDx=0;exitDy=0;fillColor=#60a917;strokeColor=#2D7600;" edge="1" parent="1" source="zePrVZ3Qa63pMSRUAGxY-9" target="zePrVZ3Qa63pMSRUAGxY-117">
          <mxGeometry relative="1" as="geometry">
            <Array as="points">
              <mxPoint x="420" y="920" />
              <mxPoint x="479" y="920" />
            </Array>
          </mxGeometry>
        </mxCell>
        <mxCell id="zePrVZ3Qa63pMSRUAGxY-9" value="Страница календаря" style="rounded=1;whiteSpace=wrap;html=1;" vertex="1" parent="1">
          <mxGeometry x="330" y="790" width="120" height="60" as="geometry" />
        </mxCell>
        <mxCell id="zePrVZ3Qa63pMSRUAGxY-115" style="edgeStyle=orthogonalEdgeStyle;rounded=0;orthogonalLoop=1;jettySize=auto;html=1;exitX=0;exitY=0.5;exitDx=0;exitDy=0;entryX=0;entryY=0.5;entryDx=0;entryDy=0;" edge="1" parent="1" source="zePrVZ3Qa63pMSRUAGxY-10" target="zePrVZ3Qa63pMSRUAGxY-11">
          <mxGeometry relative="1" as="geometry">
            <Array as="points">
              <mxPoint x="-90" y="1010" />
              <mxPoint x="-90" y="820" />
            </Array>
          </mxGeometry>
        </mxCell>
        <mxCell id="zePrVZ3Qa63pMSRUAGxY-10" value="Страница создания новго задания" style="rounded=1;whiteSpace=wrap;html=1;" vertex="1" parent="1">
          <mxGeometry x="-30" y="980" width="120" height="60" as="geometry" />
        </mxCell>
        <mxCell id="zePrVZ3Qa63pMSRUAGxY-113" style="edgeStyle=orthogonalEdgeStyle;rounded=0;orthogonalLoop=1;jettySize=auto;html=1;exitX=0.5;exitY=1;exitDx=0;exitDy=0;" edge="1" parent="1" source="zePrVZ3Qa63pMSRUAGxY-11" target="zePrVZ3Qa63pMSRUAGxY-10">
          <mxGeometry relative="1" as="geometry" />
        </mxCell>
        <mxCell id="zePrVZ3Qa63pMSRUAGxY-114" value="Преподаватель создает задание" style="edgeLabel;html=1;align=center;verticalAlign=middle;resizable=0;points=[];" vertex="1" connectable="0" parent="zePrVZ3Qa63pMSRUAGxY-113">
          <mxGeometry x="-0.1487" y="1" relative="1" as="geometry">
            <mxPoint x="-1" y="-5" as="offset" />
          </mxGeometry>
        </mxCell>
        <mxCell id="zePrVZ3Qa63pMSRUAGxY-120" style="edgeStyle=orthogonalEdgeStyle;rounded=0;orthogonalLoop=1;jettySize=auto;html=1;exitX=0.75;exitY=1;exitDx=0;exitDy=0;fillColor=#e1d5e7;strokeColor=#9673a6;" edge="1" parent="1" source="zePrVZ3Qa63pMSRUAGxY-11" target="zePrVZ3Qa63pMSRUAGxY-116">
          <mxGeometry relative="1" as="geometry">
            <Array as="points">
              <mxPoint x="60" y="870" />
              <mxPoint x="190" y="870" />
              <mxPoint x="190" y="960" />
              <mxPoint x="280" y="960" />
            </Array>
          </mxGeometry>
        </mxCell>
        <mxCell id="zePrVZ3Qa63pMSRUAGxY-121" style="edgeStyle=orthogonalEdgeStyle;rounded=0;orthogonalLoop=1;jettySize=auto;html=1;exitX=1;exitY=0.75;exitDx=0;exitDy=0;entryX=0.5;entryY=1;entryDx=0;entryDy=0;fillColor=#60a917;strokeColor=#2D7600;" edge="1" parent="1" source="zePrVZ3Qa63pMSRUAGxY-11" target="zePrVZ3Qa63pMSRUAGxY-117">
          <mxGeometry relative="1" as="geometry">
            <Array as="points">
              <mxPoint x="255" y="835" />
              <mxPoint x="255" y="920" />
              <mxPoint x="479" y="920" />
            </Array>
          </mxGeometry>
        </mxCell>
        <mxCell id="zePrVZ3Qa63pMSRUAGxY-11" value="Страница заданий" style="rounded=1;whiteSpace=wrap;html=1;" vertex="1" parent="1">
          <mxGeometry x="-30" y="790" width="120" height="60" as="geometry" />
        </mxCell>
        <mxCell id="zePrVZ3Qa63pMSRUAGxY-132" style="edgeStyle=orthogonalEdgeStyle;rounded=0;orthogonalLoop=1;jettySize=auto;html=1;exitX=0.75;exitY=1;exitDx=0;exitDy=0;entryX=0.5;entryY=1;entryDx=0;entryDy=0;" edge="1" parent="1" source="zePrVZ3Qa63pMSRUAGxY-13" target="zePrVZ3Qa63pMSRUAGxY-5">
          <mxGeometry relative="1" as="geometry">
            <Array as="points">
              <mxPoint x="20" y="420" />
              <mxPoint x="280" y="420" />
            </Array>
          </mxGeometry>
        </mxCell>
        <mxCell id="zePrVZ3Qa63pMSRUAGxY-13" value="Страница регистрации" style="rounded=1;whiteSpace=wrap;html=1;" vertex="1" parent="1">
          <mxGeometry x="-70" y="260" width="120" height="60" as="geometry" />
        </mxCell>
        <mxCell id="zePrVZ3Qa63pMSRUAGxY-67" style="edgeStyle=orthogonalEdgeStyle;rounded=0;orthogonalLoop=1;jettySize=auto;html=1;exitX=0;exitY=0.75;exitDx=0;exitDy=0;entryX=0.25;entryY=1;entryDx=0;entryDy=0;" edge="1" parent="1" source="zePrVZ3Qa63pMSRUAGxY-13" target="zePrVZ3Qa63pMSRUAGxY-13">
          <mxGeometry relative="1" as="geometry">
            <mxPoint x="-90" y="305" as="sourcePoint" />
            <mxPoint x="-60" y="335" as="targetPoint" />
            <Array as="points">
              <mxPoint x="-130" y="305" />
              <mxPoint x="-130" y="380" />
              <mxPoint x="-40" y="380" />
            </Array>
          </mxGeometry>
        </mxCell>
        <mxCell id="zePrVZ3Qa63pMSRUAGxY-71" value="Ошибка регистрации" style="edgeLabel;html=1;align=center;verticalAlign=middle;resizable=0;points=[];" vertex="1" connectable="0" parent="zePrVZ3Qa63pMSRUAGxY-67">
          <mxGeometry x="0.1589" y="4" relative="1" as="geometry">
            <mxPoint y="19" as="offset" />
          </mxGeometry>
        </mxCell>
        <mxCell id="zePrVZ3Qa63pMSRUAGxY-68" style="edgeStyle=orthogonalEdgeStyle;rounded=0;orthogonalLoop=1;jettySize=auto;html=1;exitX=0;exitY=0.75;exitDx=0;exitDy=0;entryX=0.25;entryY=1;entryDx=0;entryDy=0;" edge="1" parent="1" source="zePrVZ3Qa63pMSRUAGxY-5" target="zePrVZ3Qa63pMSRUAGxY-5">
          <mxGeometry relative="1" as="geometry">
            <Array as="points">
              <mxPoint x="150" y="305" />
              <mxPoint x="150" y="380" />
              <mxPoint x="250" y="380" />
            </Array>
          </mxGeometry>
        </mxCell>
        <mxCell id="zePrVZ3Qa63pMSRUAGxY-69" value="Ошибка авторизации" style="edgeLabel;html=1;align=center;verticalAlign=middle;resizable=0;points=[];" vertex="1" connectable="0" parent="zePrVZ3Qa63pMSRUAGxY-68">
          <mxGeometry x="0.1259" y="-1" relative="1" as="geometry">
            <mxPoint x="13" y="9" as="offset" />
          </mxGeometry>
        </mxCell>
        <mxCell id="zePrVZ3Qa63pMSRUAGxY-80" value="Уже авторизован" style="text;html=1;align=center;verticalAlign=middle;resizable=0;points=[];autosize=1;strokeColor=none;fillColor=none;" vertex="1" parent="1">
          <mxGeometry x="470" y="280" width="120" height="30" as="geometry" />
        </mxCell>
        <mxCell id="zePrVZ3Qa63pMSRUAGxY-82" value="[Преподаватель]" style="text;html=1;align=center;verticalAlign=middle;resizable=0;points=[];autosize=1;strokeColor=none;fillColor=none;" vertex="1" parent="1">
          <mxGeometry x="470" y="478" width="120" height="30" as="geometry" />
        </mxCell>
        <mxCell id="zePrVZ3Qa63pMSRUAGxY-83" value="[Админ]" style="text;html=1;align=center;verticalAlign=middle;resizable=0;points=[];autosize=1;strokeColor=none;fillColor=none;" vertex="1" parent="1">
          <mxGeometry x="790" y="478" width="70" height="30" as="geometry" />
        </mxCell>
        <mxCell id="zePrVZ3Qa63pMSRUAGxY-84" value="[Учащийся]" style="text;html=1;align=center;verticalAlign=middle;resizable=0;points=[];autosize=1;strokeColor=none;fillColor=none;" vertex="1" parent="1">
          <mxGeometry x="120" y="478" width="90" height="30" as="geometry" />
        </mxCell>
        <mxCell id="zePrVZ3Qa63pMSRUAGxY-85" value="Первый заход" style="text;html=1;align=center;verticalAlign=middle;resizable=0;points=[];autosize=1;strokeColor=none;fillColor=none;" vertex="1" parent="1">
          <mxGeometry x="280" width="100" height="30" as="geometry" />
        </mxCell>
        <mxCell id="zePrVZ3Qa63pMSRUAGxY-89" style="edgeStyle=orthogonalEdgeStyle;rounded=0;orthogonalLoop=1;jettySize=auto;html=1;exitX=1;exitY=0.5;exitDx=0;exitDy=0;entryX=0.25;entryY=0;entryDx=0;entryDy=0;" edge="1" parent="1" source="zePrVZ3Qa63pMSRUAGxY-87" target="zePrVZ3Qa63pMSRUAGxY-5">
          <mxGeometry relative="1" as="geometry" />
        </mxCell>
        <mxCell id="zePrVZ3Qa63pMSRUAGxY-87" value="Страница восстановления пароля" style="rounded=1;whiteSpace=wrap;html=1;" vertex="1" parent="1">
          <mxGeometry x="80" y="160" width="120" height="60" as="geometry" />
        </mxCell>
        <mxCell id="zePrVZ3Qa63pMSRUAGxY-92" style="edgeStyle=orthogonalEdgeStyle;rounded=0;orthogonalLoop=1;jettySize=auto;html=1;exitX=1;exitY=0.75;exitDx=0;exitDy=0;entryX=0.25;entryY=1;entryDx=0;entryDy=0;fillColor=#dae8fc;strokeColor=#6c8ebf;" edge="1" parent="1" source="zePrVZ3Qa63pMSRUAGxY-90" target="zePrVZ3Qa63pMSRUAGxY-6">
          <mxGeometry relative="1" as="geometry" />
        </mxCell>
        <mxCell id="zePrVZ3Qa63pMSRUAGxY-93" style="edgeStyle=orthogonalEdgeStyle;rounded=0;orthogonalLoop=1;jettySize=auto;html=1;exitX=1;exitY=0.75;exitDx=0;exitDy=0;entryX=0.25;entryY=1;entryDx=0;entryDy=0;fillColor=#dae8fc;strokeColor=#6c8ebf;" edge="1" parent="1" source="zePrVZ3Qa63pMSRUAGxY-90" target="zePrVZ3Qa63pMSRUAGxY-8">
          <mxGeometry relative="1" as="geometry" />
        </mxCell>
        <mxCell id="zePrVZ3Qa63pMSRUAGxY-94" style="edgeStyle=orthogonalEdgeStyle;rounded=0;orthogonalLoop=1;jettySize=auto;html=1;exitX=1;exitY=0.75;exitDx=0;exitDy=0;entryX=0.25;entryY=1;entryDx=0;entryDy=0;fillColor=#dae8fc;strokeColor=#6c8ebf;" edge="1" parent="1" source="zePrVZ3Qa63pMSRUAGxY-90" target="zePrVZ3Qa63pMSRUAGxY-7">
          <mxGeometry relative="1" as="geometry" />
        </mxCell>
        <mxCell id="zePrVZ3Qa63pMSRUAGxY-90" value="Страница настроек" style="rounded=1;whiteSpace=wrap;html=1;" vertex="1" parent="1">
          <mxGeometry x="-270" y="600" width="120" height="60" as="geometry" />
        </mxCell>
        <mxCell id="zePrVZ3Qa63pMSRUAGxY-106" style="edgeStyle=orthogonalEdgeStyle;rounded=0;orthogonalLoop=1;jettySize=auto;html=1;exitX=0.5;exitY=0;exitDx=0;exitDy=0;entryX=0.5;entryY=1;entryDx=0;entryDy=0;" edge="1" parent="1" source="zePrVZ3Qa63pMSRUAGxY-91" target="zePrVZ3Qa63pMSRUAGxY-105">
          <mxGeometry relative="1" as="geometry" />
        </mxCell>
        <mxCell id="zePrVZ3Qa63pMSRUAGxY-91" value="Страница профиля" style="rounded=1;whiteSpace=wrap;html=1;" vertex="1" parent="1">
          <mxGeometry x="930" y="580" width="120" height="60" as="geometry" />
        </mxCell>
        <mxCell id="zePrVZ3Qa63pMSRUAGxY-105" value="Настройки профиля" style="rounded=1;whiteSpace=wrap;html=1;" vertex="1" parent="1">
          <mxGeometry x="930" y="478" width="120" height="60" as="geometry" />
        </mxCell>
        <mxCell id="zePrVZ3Qa63pMSRUAGxY-116" value="Страница задания у преподователя" style="rounded=1;whiteSpace=wrap;html=1;" vertex="1" parent="1">
          <mxGeometry x="220" y="1000" width="120" height="60" as="geometry" />
        </mxCell>
        <mxCell id="zePrVZ3Qa63pMSRUAGxY-117" value="Страница задания у учащегося" style="rounded=1;whiteSpace=wrap;html=1;" vertex="1" parent="1">
          <mxGeometry x="419" y="1000" width="120" height="60" as="geometry" />
        </mxCell>
        <mxCell id="zePrVZ3Qa63pMSRUAGxY-122" value="" style="ellipse;html=1;shape=endState;fillColor=strokeColor;" vertex="1" parent="1">
          <mxGeometry x="-30" y="540" width="30" height="30" as="geometry" />
        </mxCell>
        <mxCell id="zePrVZ3Qa63pMSRUAGxY-124" value="" style="ellipse;html=1;shape=endState;fillColor=strokeColor;" vertex="1" parent="1">
          <mxGeometry x="320" y="540" width="30" height="30" as="geometry" />
        </mxCell>
        <mxCell id="zePrVZ3Qa63pMSRUAGxY-127" value="" style="ellipse;html=1;shape=endState;fillColor=strokeColor;" vertex="1" parent="1">
          <mxGeometry x="630" y="540" width="30" height="30" as="geometry" />
        </mxCell>
      </root>
    </mxGraphModel>
  </diagram>
</mxfile>
